<?xml version="1.0" encoding="UTF-8"?>
<svg version="1.1" xmlns="http://www.w3.org/2000/svg" width="512" height="512">
<path d="M0 0 C0.71599365 0.00016113 1.4319873 0.00032227 2.16967773 0.00048828 C4.34309126 -0.00386968 6.51444812 -0.04013544 8.6875 -0.078125 C10.07486287 -0.0839964 11.46223536 -0.08796363 12.84960938 -0.08984375 C14.73933472 -0.10217041 14.73933472 -0.10217041 16.66723633 -0.11474609 C20.63640402 0.45551192 22.26810514 1.52963384 25.04882812 4.37109375 C26.00870424 7.25072209 26.17036626 9.03736816 26.16235352 12.02612305 C26.16224022 13.43724617 26.16224022 13.43724617 26.16212463 14.87687683 C26.15696335 15.8894606 26.15180206 16.90204437 26.14648438 17.9453125 C26.14506943 18.98428177 26.14365448 20.02325104 26.14219666 21.09370422 C26.13659468 24.41536323 26.12404184 27.73695508 26.11132812 31.05859375 C26.10631338 33.30924382 26.10175043 35.55989494 26.09765625 37.81054688 C26.08747508 43.33077592 26.06789995 48.85085957 26.04882812 54.37109375 C35.28882812 54.04109375 44.52882813 53.71109375 54.04882812 53.37109375 C54.70882812 49.74109375 55.36882812 46.11109375 56.04882812 42.37109375 C59.11803077 36.45191721 63.48520942 32.82883772 69.23632812 29.55859375 C76.15237004 27.40441676 83.47933359 27.3355797 90.20117188 30.26171875 C95.65107588 33.53396555 99.93271771 38.37544757 102.04882812 44.37109375 C102.27615346 46.09967829 102.46371515 47.83378601 102.61914062 49.5703125 C102.70180176 50.46967529 102.78446289 51.36903809 102.86962891 52.2956543 C102.95833252 53.32299683 102.95833252 53.32299683 103.04882812 54.37109375 C104.83329346 54.25326538 104.83329346 54.25326538 106.65380859 54.13305664 C111.10632168 53.85968963 115.55811571 53.6887603 120.01660156 53.54711914 C121.93812029 53.47208503 123.85879355 53.36999882 125.77734375 53.23950195 C141.30655553 52.21040918 141.30655553 52.21040918 145.88809204 55.82028198 C149.03096243 59.37569366 151.1682581 63.34522055 153.17462158 67.62081909 C159.43286374 80.15062997 175.38844622 88.77343796 188.09033203 93.06005859 C208.10614102 99.10616203 228.48706118 97.19015863 247.04882812 87.37109375 C250.88523152 84.89768585 254.49173308 82.22833757 258.04882812 79.37109375 C258.89445312 78.72527344 259.74007813 78.07945313 260.61132812 77.4140625 C263.05592689 75.36514398 264.98734595 73.2899479 266.98632812 70.80859375 C267.61410156 70.04417969 268.241875 69.27976562 268.88867188 68.4921875 C271.9825631 64.02199023 274.4455796 59.14371605 277.04882812 54.37109375 C290.90882813 54.37109375 304.76882813 54.37109375 319.04882812 54.37109375 C319.37882812 51.07109375 319.70882813 47.77109375 320.04882812 44.37109375 C323.47972053 37.50930895 327.87786856 32.45657353 334.79882812 28.99609375 C343.14622222 27.39082565 350.8169903 27.54077188 358.04882812 32.37109375 C363.89817511 37.31003653 366.71062095 42.87713358 368.04882812 50.37109375 C368.04882812 51.69109375 368.04882812 53.01109375 368.04882812 54.37109375 C377.28882813 54.37109375 386.52882813 54.37109375 396.04882812 54.37109375 C396.01402344 51.03628906 395.97921875 47.70148438 395.94335938 44.265625 C395.91995627 41.03215389 395.90174393 37.79869225 395.8840332 34.56518555 C395.8689563 32.31969981 395.8484916 30.07424346 395.82250977 27.82885742 C395.78607895 24.59937276 395.76909058 21.37027781 395.75585938 18.140625 C395.74037552 17.1383638 395.72489166 16.1361026 395.7089386 15.10346985 C395.7068494 6.43113324 395.7068494 6.43113324 399.04882812 2.37109375 C402.53676571 -1.11684383 407.68831745 0.03232964 412.40429688 0 C413.14599121 0.00016113 413.88768555 0.00032227 414.65185547 0.00048828 C416.90864968 -0.00387689 419.163475 -0.04016424 421.41992188 -0.078125 C422.85611311 -0.08399485 424.29231363 -0.08796312 425.72851562 -0.08984375 C427.03546387 -0.09806152 428.34241211 -0.1062793 429.68896484 -0.11474609 C433.04882812 0.37109375 433.04882812 0.37109375 435.44384766 2.21240234 C437.87153222 5.477627 438.17293355 8.0797694 438.16235352 12.02612305 C438.16227798 12.9668718 438.16220245 13.90762054 438.16212463 14.87687683 C438.15696335 15.8894606 438.15180206 16.90204437 438.14648438 17.9453125 C438.14436195 19.5037664 438.14436195 19.5037664 438.14219666 21.09370422 C438.13659468 24.41536323 438.12404184 27.73695508 438.11132812 31.05859375 C438.10631338 33.30924382 438.10175043 35.55989494 438.09765625 37.81054688 C438.08662461 43.33075212 438.06988456 48.85091814 438.04882812 54.37109375 C439.29092041 54.34644043 440.5330127 54.32178711 441.81274414 54.29638672 C443.45523408 54.27644932 445.09773138 54.25711239 446.74023438 54.23828125 C447.55737915 54.22047607 448.37452393 54.2026709 449.21643066 54.18432617 C454.4927992 54.1389438 458.46816274 54.43108341 462.70117188 57.90234375 C467.11763162 62.7156448 467.59879662 67.35955996 467.39257812 73.68359375 C466.84792901 77.94175956 465.74432014 79.98444993 463.04882812 83.37109375 C457.4435939 87.35338388 453.38438353 87.90489623 446.61132812 87.62109375 C445.78439453 87.60304688 444.95746094 87.585 444.10546875 87.56640625 C442.0860788 87.51971515 440.06729367 87.44798768 438.04882812 87.37109375 C438.05993118 87.95911774 438.07103424 88.54714172 438.08247375 89.15298462 C438.1932744 95.28494037 438.268581 101.4166108 438.32348633 107.54931641 C438.34859755 109.83654332 438.38269328 112.12369025 438.42602539 114.41064453 C438.48682394 117.7023494 438.51507252 120.99299145 438.53710938 124.28515625 C438.5629158 125.30412994 438.58872223 126.32310364 438.61531067 127.37295532 C438.61704361 131.78058978 438.60668424 135.34596339 435.97753906 139.01855469 C432.30340499 141.96986812 430.3792286 142.11929361 425.70117188 142.09765625 C425.00745987 142.09865326 424.31374786 142.09965027 423.59901428 142.10067749 C422.13905318 142.09601528 420.67907314 142.07666985 419.21948242 142.04345703 C416.98860762 141.9961421 414.76250114 142.00235398 412.53125 142.015625 C401.77201291 141.93127921 401.77201291 141.93127921 398.66040039 139.52099609 C396.21919264 136.26432658 395.92472426 133.66183717 395.93530273 129.71606445 C395.93537827 128.7753157 395.9354538 127.83456696 395.93553162 126.86531067 C395.9406929 125.8527269 395.94585419 124.84014313 395.95117188 123.796875 C395.9532943 122.2384211 395.9532943 122.2384211 395.95545959 120.64848328 C395.96106157 117.32682427 395.97361441 114.00523242 395.98632812 110.68359375 C395.99134287 108.43294368 395.99590582 106.18229256 396 103.93164062 C396.01018117 98.41141158 396.0297563 92.89132793 396.04882812 87.37109375 C385.48882812 87.37109375 374.92882812 87.37109375 364.04882812 87.37109375 C363.71882813 92.32109375 363.38882812 97.27109375 363.04882812 102.37109375 C362.80531706 105.1823593 362.54725138 107.99246817 362.2644043 110.80004883 C362.19265488 111.51769409 362.12090546 112.23533936 362.04698181 112.97473145 C361.8152488 115.28038207 361.57921181 117.58555286 361.34179688 119.890625 C361.25944605 120.69182959 361.17709522 121.49303417 361.09224892 122.31851768 C360.6568973 126.5450101 360.21746943 130.77105802 359.77514648 134.99682617 C359.41317985 138.46284668 359.0597371 141.92957797 358.71362305 145.3972168 C358.29106192 149.63047932 357.85405265 153.86202004 357.40685463 158.09274864 C357.2404795 159.6888444 357.07898822 161.28545795 356.92275047 162.8825779 C354.99658473 182.473678 354.99658473 182.473678 349.08398438 189.80859375 C342.69700635 194.86758625 337.16049343 197.82718818 328.69335938 197.1953125 C317.96209404 195.54818805 311.97627555 189.76206889 305.49804688 181.4296875 C302.8236793 178.08992704 299.97950634 174.98416016 297.04882812 171.87109375 C292.40203118 166.9148058 288.03500644 161.82449995 283.79101562 156.515625 C282.07721301 154.33083372 282.07721301 154.33083372 280.04882812 152.37109375 C279.71882813 181.41109375 279.38882812 210.45109375 279.04882812 240.37109375 C283.50382813 241.85609375 283.50382813 241.85609375 288.04882812 243.37109375 C289.83487922 244.04353461 291.61460676 244.7333286 293.38378906 245.44897461 C294.33153198 245.83085937 295.2792749 246.21274414 296.2557373 246.60620117 C297.25480103 247.01201416 298.25386475 247.41782715 299.28320312 247.8359375 C300.87944519 248.48054932 300.87944519 248.48054932 302.50793457 249.13818359 C305.93954117 250.52511263 309.36937577 251.91634713 312.79882812 253.30859375 C313.96345581 253.78096466 315.1280835 254.25333557 316.32800293 254.74002075 C321.00854556 256.63860126 325.68880577 258.53786526 330.36773682 260.44041443 C336.06821273 262.75817651 341.7717585 265.06737434 347.48577881 267.35154724 C349.54787455 268.176937 351.60788198 269.00728174 353.66699219 269.84008789 C355.99875943 270.78292064 358.33380203 271.71771549 360.67285156 272.64233398 C368.51776317 275.842625 375.83205878 279.51509934 380.42382812 286.93359375 C380.8853125 287.65675781 381.34679687 288.37992187 381.82226562 289.125 C384.96117585 294.87300438 385.8571349 300.51065846 386.82055664 306.921875 C386.9850531 307.98436966 387.14954956 309.04686432 387.31903076 310.14155579 C387.86126783 313.65467516 388.3947241 317.16906357 388.92773438 320.68359375 C389.30323731 323.13401118 389.67913322 325.58436843 390.05540466 328.03466797 C390.84344077 333.17536428 391.6272317 338.31668484 392.40795898 343.45849609 C393.40477538 350.02169818 394.41119483 356.58338133 395.4207468 363.14463806 C396.19905871 368.20926348 396.97261314 373.27460679 397.74473381 378.34017944 C398.11374794 380.75789035 398.48411368 383.1753954 398.8558979 385.59268188 C404.87303275 424.77667519 404.87303275 424.77667519 397.65820312 435.38671875 C392.77384443 441.40918044 386.91069804 447.06500891 379.04882812 448.37109375 C368.12101929 449.33891538 359.02660542 448.51026182 350.23632812 441.62109375 C338.43060793 430.42649319 338.19339793 412.65967179 335.94726562 397.4296875 C335.66298935 395.52963345 335.3782003 393.62965605 335.09292603 391.72975159 C334.34917226 386.76890629 333.61118587 381.80722208 332.87481689 376.84527588 C331.69087257 368.87331997 330.49862076 360.90260474 329.30525589 352.93205452 C328.890558 350.15596311 328.47870031 347.37946145 328.06723022 344.60289001 C327.81426156 342.90639171 327.56122376 341.20990372 327.30810547 339.51342773 C327.19485428 338.74406891 327.08160309 337.97471008 326.96492004 337.18203735 C326.31793094 332.20350458 326.31793094 332.20350458 325.04882812 327.37109375 C322.80267029 325.93739462 322.80267029 325.93739462 319.90820312 324.8828125 C318.79243896 324.43107666 317.6766748 323.97934082 316.52709961 323.51391602 C315.28441881 323.028613 314.04165926 322.54351162 312.79882812 322.05859375 C311.51445387 321.54438716 310.23069301 321.02864615 308.94750977 320.51147461 C306.16089687 319.39086218 303.37099379 318.2790113 300.57861328 317.17285156 C295.81252571 315.28183849 291.06064086 313.35655968 286.31054688 311.42578125 C285.49331146 311.09361099 284.67607605 310.76144073 283.83407593 310.41920471 C282.19255277 309.75196513 280.55104268 309.0846934 278.9095459 308.41738892 C276.53796385 307.45455719 274.16523937 306.49460796 271.79199219 305.53588867 C271.0345723 305.22978668 270.2771524 304.92368469 269.4967804 304.60830688 C268.10097369 304.04439715 266.70498896 303.4809277 265.3087616 302.9180603 C264.3378936 302.5256163 264.3378936 302.5256163 263.34741211 302.12524414 C262.67060898 301.85764786 261.99380585 301.59005157 261.29649353 301.31434631 C259.64925736 300.62306916 258.0277652 299.86957678 256.42433167 299.08201599 C248.04147318 295.13720634 240.25314796 294.52227502 231.14648438 294.4609375 C229.61884576 294.43968871 228.09121213 294.41807902 226.56358337 294.39613342 C223.3671963 294.357384 220.17146068 294.33994865 216.97485352 294.3347168 C213.76094827 294.32626191 210.55183437 294.2783223 207.33911133 294.19116211 C185.40007626 293.60685796 168.91861745 296.06761904 149.1477356 305.86557007 C144.70154564 308.02563594 140.14389289 309.84354579 135.54492188 311.6484375 C134.00717167 312.26859564 132.47004235 312.89029598 130.93359375 313.51367188 C129.45120764 314.11206776 127.96878569 314.71037489 126.48632812 315.30859375 C124.16525236 316.24597479 121.84433048 317.18373242 119.5236969 318.12220764 C118.11799346 318.69061939 116.71205062 319.25843977 115.30577087 319.82542419 C113.98106306 320.36083764 112.6615613 320.90928591 111.34716797 321.46954346 C109.04882813 322.37109375 109.04882813 322.37109375 105.96826172 323.28485107 C99.83853512 325.17971289 99.83853512 325.17971289 95.70024109 329.74980164 C94.88166465 332.83036159 94.45392521 335.78708742 94.11914062 338.95703125 C93.95253433 340.11058105 93.78592804 341.26413086 93.61427307 342.45263672 C93.08297469 346.21209647 92.62878301 349.97670593 92.17382812 353.74609375 C91.81975038 356.33491109 91.4600987 358.92297197 91.0949707 361.51025391 C90.371094 366.6897993 89.67500597 371.87175918 89.00537109 377.05859375 C87.82640321 386.15929442 86.4951277 395.23400071 85.10467529 404.30450439 C84.74676742 406.67689689 84.4086975 409.05138367 84.07470703 411.42724609 C82.40178753 423.00002622 80.47305153 434.52042489 71.04882812 442.37109375 C62.12501324 448.7335694 53.61138592 449.65106651 43.04882812 448.37109375 C34.72680798 446.34104319 27.93565596 440.4856773 23.17382812 433.49609375 C14.88477557 418.85023399 21.14979685 399.15576659 23.54101562 383.51953125 C23.89135308 381.21037215 24.24145683 378.90117758 24.59133911 376.59194946 C25.32281736 371.77206733 26.05789381 366.95275083 26.79541016 362.13378906 C27.73665425 355.98098107 28.66765969 349.82667373 29.59582329 343.67188072 C30.31534187 338.90976457 31.04091659 334.14858575 31.76822281 329.38765335 C32.11386297 327.11952585 32.45751259 324.85109402 32.79906845 322.58234787 C33.27826939 319.40465911 33.76580165 316.22835174 34.25537109 313.05224609 C34.39262604 312.13039017 34.52988098 311.20853424 34.67129517 310.25874329 C36.50706196 298.49557674 38.74583106 287.4239788 48.30664062 279.51171875 C54.3481637 275.12946298 61.34779552 272.66275238 68.23632812 269.93359375 C69.72953876 269.33177171 71.22228692 268.72880108 72.71459961 268.12475586 C75.86163602 266.8529933 79.01125592 265.58795953 82.16308594 264.328125 C87.08729314 262.3585409 92.00258124 260.36737695 96.91601562 258.37109375 C98.55248457 257.70628489 100.18895914 257.04148986 101.82543945 256.37670898 C102.62333893 256.05258026 103.4212384 255.72845154 104.24331665 255.39450073 C106.53542462 254.46439436 108.82841153 253.53649837 111.12182617 252.60961914 C112.22586288 252.16326111 112.22586288 252.16326111 113.35220337 251.70788574 C114.68460752 251.16936312 116.01716181 250.63121162 117.34994507 250.09362793 C125.26631125 246.89286519 133.15254916 243.62250274 141.04882812 240.37109375 C141.04882812 211.66109375 141.04882812 182.95109375 141.04882812 153.37109375 C134.61382812 160.79609375 134.61382812 160.79609375 128.04882812 168.37109375 C123.29882812 173.62109375 123.29882812 173.62109375 121.16210938 175.96484375 C118.83754116 178.61167188 116.6681308 181.35574249 114.48632812 184.12109375 C108.14590938 191.84984556 103.15993608 196.01994109 93.00585938 197.24609375 C85.62070661 197.55827986 80.48001455 195.69493569 74.77148438 191.0078125 C68.10460268 184.67351901 66.88826159 176.67165468 65.99560547 167.94482422 C65.90753128 167.13253357 65.81945709 166.32024292 65.72871399 165.4833374 C65.44139242 162.81892264 65.16291529 160.15366782 64.88476562 157.48828125 C64.68630613 155.62691374 64.48737507 153.76559645 64.28799438 151.90432739 C63.87243769 148.01294526 63.46097753 144.12115998 63.05273438 140.22900391 C62.52975493 135.24393902 61.99903514 130.25973763 61.46556664 125.27578545 C61.05501784 121.43615805 60.64731055 117.59623344 60.24058914 113.75619888 C60.04580639 111.91815119 59.85043498 110.08016578 59.65446091 108.24224472 C59.38136443 105.67463001 59.11179098 103.10667008 58.84326172 100.53857422 C58.76224716 99.78208588 58.6812326 99.02559753 58.59776306 98.2461853 C58.21802806 94.57825756 58.04882812 91.07077386 58.04882812 87.37109375 C47.48882812 87.37109375 36.92882812 87.37109375 26.04882812 87.37109375 C26.08363281 90.70589844 26.1184375 94.04070312 26.15429688 97.4765625 C26.17769998 100.71003361 26.19591232 103.94349525 26.21362305 107.17700195 C26.22869995 109.42248769 26.24916465 111.66794404 26.27514648 113.91333008 C26.3115773 117.14281474 26.32856567 120.37190969 26.34179688 123.6015625 C26.36502266 125.1049543 26.36502266 125.1049543 26.38871765 126.63871765 C26.39080685 135.31105426 26.39080685 135.31105426 23.04882812 139.37109375 C19.28127748 143.1386444 12.64347404 141.82467528 7.50073242 141.8515625 C5.25417837 141.87093979 3.01131613 141.93293908 0.765625 141.99609375 C-0.66729601 142.00915865 -2.10024317 142.01965772 -3.53320312 142.02734375 C-5.48577026 142.05538086 -5.48577026 142.05538086 -7.4777832 142.08398438 C-11.12632404 141.3351449 -12.87964295 140.43021858 -15.06556702 137.3682251 C-16.91805128 133.19067981 -16.55309942 128.77251067 -16.43945312 124.28515625 C-16.43237839 123.22823578 -16.42530365 122.17131531 -16.41801453 121.08236694 C-16.39011302 117.71954409 -16.32737943 114.35841003 -16.26367188 110.99609375 C-16.23858366 108.71096161 -16.21577141 106.42580327 -16.1953125 104.140625 C-16.14030044 98.55020885 -16.05671607 92.96077197 -15.95117188 87.37109375 C-17.19326416 87.39574707 -18.43535645 87.42040039 -19.71508789 87.44580078 C-21.35757783 87.46573818 -23.00007513 87.48507511 -24.64257812 87.50390625 C-25.4597229 87.52171143 -26.27686768 87.5395166 -27.11877441 87.55786133 C-32.39514295 87.6032437 -36.37050649 87.31110409 -40.60351562 83.83984375 C-45.01997537 79.0265427 -45.50114037 74.38262754 -45.29492188 68.05859375 C-44.75027276 63.80042794 -43.64666389 61.75773757 -40.95117188 58.37109375 C-35.34593765 54.38880362 -31.28672728 53.83729127 -24.51367188 54.12109375 C-23.27327148 54.14816406 -23.27327148 54.14816406 -22.0078125 54.17578125 C-19.98842255 54.22247235 -17.96963742 54.29419982 -15.95117188 54.37109375 C-15.95783371 53.79337723 -15.96449554 53.21566071 -15.97135925 52.62043762 C-16.03778185 46.60207693 -16.08300122 40.58382056 -16.1159668 34.56518555 C-16.1310437 32.31969981 -16.1515084 30.07424346 -16.17749023 27.82885742 C-16.21392105 24.59937276 -16.23090942 21.37027781 -16.24414062 18.140625 C-16.25962448 17.1383638 -16.27510834 16.1361026 -16.2910614 15.10346985 C-16.2931506 6.43113324 -16.2931506 6.43113324 -12.95117188 2.37109375 C-9.52502272 -1.05505541 -4.62895938 0.03287532 0 0 Z M107.04882812 87.37109375 C107.73836411 100.39806157 107.73836411 100.39806157 109.04882812 113.37109375 C113.01704806 111.80785559 115.4648933 109.050171 118.23632812 105.93359375 C118.94946167 105.14311646 118.94946167 105.14311646 119.67700195 104.33666992 C128.05824658 96.35135205 128.05824658 96.35135205 133.04882812 87.37109375 C124.46882813 87.37109375 115.88882813 87.37109375 107.04882812 87.37109375 Z M289.04882812 87.37109375 C292.66660576 92.19479726 295.94726814 96.52435821 299.98632812 100.87109375 C303.66247208 104.85265751 307.25782819 108.88236677 310.77148438 113.0078125 C311.40376953 113.68263672 311.40376953 113.68263672 312.04882812 114.37109375 C312.37882812 114.37109375 312.70882813 114.37109375 313.04882812 114.37109375 C313.38747953 111.37160984 313.71987886 108.37164449 314.04882812 105.37109375 C314.19191406 104.11232422 314.19191406 104.11232422 314.33789062 102.828125 C314.428125 101.99667969 314.51835937 101.16523438 314.61132812 100.30859375 C314.69511719 99.55449219 314.77890625 98.80039063 314.86523438 98.0234375 C315.11046717 94.48060621 315.04882812 90.92240234 315.04882812 87.37109375 C306.46882813 87.37109375 297.88882812 87.37109375 289.04882812 87.37109375 Z " fill="#FAFF0C" transform="translate(44.951171875,46.62890625)"/>
<path d="M0 0 C13.30004595 10.21832799 19.72356184 22.74624622 22.5625 38.96875 C24.29339449 52.81590588 19.4492245 67.10016158 11.21875 78.1015625 C2.38463824 88.80144932 -9.49414149 96.2300916 -23.4375 97.96875 C-40.32399092 99.1579395 -54.58466241 95.92147821 -67.6875 84.71875 C-79.36242938 73.65536454 -85.27013527 60.11705931 -85.75 44.09375 C-85.42185927 29.80139833 -80.0188169 16.2823894 -70.125 5.96875 C-50.76641044 -11.96757584 -22.10126752 -15.16249748 0 0 Z " fill="#FAFF0C" transform="translate(287.4375,26.03125)"/>
</svg>
