<?xml version="1.0" encoding="UTF-8"?>
<svg version="1.1" xmlns="http://www.w3.org/2000/svg" width="512" height="512">
<path d="M0 0 C0.99699417 -0.00137466 1.99398834 -0.00274933 3.02119446 -0.00416565 C4.11379578 -0.00057037 5.20639709 0.0030249 6.33210754 0.00672913 C7.48346695 0.0065831 8.63482635 0.00643707 9.82107544 0.00628662 C13.63572559 0.00698461 17.45032722 0.01477173 21.26496887 0.02259827 C23.90627007 0.02446285 26.54757162 0.02588656 29.18887329 0.02688599 C35.43615841 0.02999504 41.68342604 0.0382027 47.93070346 0.04823548 C55.04308994 0.05940982 62.15547724 0.0649104 69.26787031 0.06993091 C83.8984226 0.08038566 98.52896112 0.09797687 113.15950012 0.12025452 C113.61478088 0.99198303 114.07006165 1.86371155 114.53913879 2.76185608 C115.45529968 4.49387268 115.45529968 4.49387268 116.38996887 6.26087952 C117.28945251 7.97065979 117.28945251 7.97065979 118.20710754 9.71498108 C129.71221561 29.78166201 149.18161403 41.67846873 170.87043762 47.89759827 C174.6161874 48.75003634 177.9980148 49.12110803 181.85481262 49.10072327 C191.89677916 49.14985226 191.89677916 49.14985226 195.21809387 51.70228577 C197.11296573 54.40046989 198.60291988 57.21199418 200.15950012 60.12025452 C202.1308511 63.25686046 204.18239432 66.3402363 206.22200012 69.43275452 C207.3457595 71.1623381 208.46812115 72.89283051 209.58918762 74.62416077 C213.32785092 80.38211882 217.07228558 86.13584668 220.84700012 91.87025452 C221.44713928 92.7936261 222.04727844 93.71699768 222.66560364 94.66835022 C223.50369568 95.93618347 223.50369568 95.93618347 224.35871887 97.22962952 C224.85202698 97.98211975 225.34533508 98.73460999 225.85359192 99.50990295 C226.28454163 100.04131897 226.71549133 100.57273499 227.15950012 101.12025452 C230.01631825 101.12025452 231.72212467 99.87182358 234.23371887 98.51478577 C235.28301575 97.94937073 236.33231262 97.38395569 237.41340637 96.80140686 C238.54649231 96.18475159 239.67957825 95.56809631 240.84700012 94.93275452 C242.5872345 93.99230286 242.5872345 93.99230286 244.36262512 93.03285217 C253.12542627 88.28579242 261.81096891 83.40650979 270.41999817 78.38514709 C281.96738102 71.73930167 291.64366062 68.04457901 305.14778137 70.71009827 C313.19188636 73.17908099 319.85632585 78.26843757 324.60090637 85.23744202 C325.62030347 87.17091105 326.42815004 89.06226939 327.15950012 91.12025452 C327.57200012 92.23400452 327.98450012 93.34775452 328.40950012 94.49525452 C330.74560955 105.78645008 328.35188438 115.32730658 322.14778137 124.91712952 C315.78541217 131.96698459 307.0890223 136.10357946 298.84700012 140.55775452 C297.55917398 141.25999974 296.27174604 141.96297564 294.98469543 142.66664124 C292.33954675 144.11249025 289.69307715 145.55587562 287.04573059 146.99769592 C281.14858994 150.21373619 275.27970509 153.48035559 269.40950012 156.74525452 C267.76135315 157.65730652 267.76135315 157.65730652 266.07991028 158.58778381 C260.46855171 161.69762865 254.8848117 164.84653769 249.33528137 168.06556702 C248.22443176 168.70413635 247.11358215 169.34270569 245.96907043 170.00062561 C243.88196024 171.20236169 241.80126039 172.41533845 239.72883606 173.64222717 C229.49429166 179.50963904 218.92361204 182.81746671 207.15950012 180.12025452 C193.28568415 175.27132132 187.01422815 165.28261602 179.74153137 153.32337952 C177.24779899 149.2311978 174.63733028 145.22732968 171.97200012 141.24525452 C171.59253235 140.67597229 171.21306458 140.10669006 170.82209778 139.52015686 C167.34422875 134.33380881 163.75123027 129.22812098 160.15950012 124.12025452 C159.7731842 124.79266174 159.38686829 125.46506897 158.98884583 126.15785217 C151.73600956 138.77455332 144.45129532 151.36886873 137.03059387 163.88783264 C132.82047611 170.99305607 128.63815042 178.11416086 124.47200012 185.24525452 C123.57082458 186.78463684 123.57082458 186.78463684 122.65144348 188.3551178 C122.09335999 189.31144104 121.53527649 190.26776428 120.96028137 191.25306702 C120.46697327 192.09756409 119.97366516 192.94206116 119.46540833 193.81214905 C118.29187054 195.88629865 117.20176875 197.97772778 116.15950012 200.12025452 C117.20106262 200.9078717 118.24262512 201.69548889 119.31575012 202.50697327 C127.37082568 208.6203357 135.32161193 214.82893653 143.13825989 221.24427795 C147.88104054 225.12119771 152.71245717 228.86160082 157.59700012 232.55775452 C163.56735819 237.0923869 169.46744774 241.70269164 175.28450012 246.43275452 C175.97084534 246.98310364 176.65719055 247.53345276 177.36433411 248.10047913 C187.22683127 256.19200906 192.29765613 263.52501858 194.53840637 276.27650452 C195.41297869 289.59257335 186.210348 305.35330248 181.34700012 317.37025452 C180.47218847 319.54124348 179.59776662 321.71238956 178.72370911 323.88368225 C176.86017001 328.51095257 174.99345877 333.13692918 173.12532043 337.76234436 C170.56369665 344.1101372 168.01853668 350.46439632 165.47833252 356.82078552 C163.65831193 361.37493631 161.83378844 365.9272782 160.00801182 370.47912407 C158.74465361 373.62922807 157.48311519 376.78003209 156.22599792 379.93263245 C154.81496701 383.46752772 153.3963256 386.99927942 151.97590637 390.53041077 C151.56206696 391.57211929 151.14822754 392.61382782 150.72184753 393.68710327 C145.95372477 405.49034899 141.05937397 415.77000811 129.05403137 421.39369202 C120.94603905 424.50314887 109.83593882 424.5379518 101.65950012 421.55775452 C92.52186209 417.18090269 86.71616254 410.20754598 82.84700012 400.99525452 C80.54580061 388.02485726 83.28087845 377.96991395 88.15950012 366.12025452 C88.73957825 364.7022052 88.73957825 364.7022052 89.33137512 363.25550842 C91.43396057 358.13126757 93.55639438 353.01540475 95.68600464 347.90234375 C100.07872021 337.34929434 104.43231118 326.78047678 108.72554016 316.1865387 C109.55452334 314.14724494 110.38824528 312.10987092 111.22676086 310.07447815 C112.41063163 307.19872492 113.57787801 304.31673691 114.74153137 301.43275452 C115.10235306 300.56624268 115.46317474 299.69973083 115.83493042 298.80696106 C118.24446523 293.06816847 118.24446523 293.06816847 117.15950012 287.12025452 C115.12804145 285.21074285 113.20941434 283.62268147 110.97200012 281.99525452 C109.68657801 281.0242522 108.40142921 280.05288798 107.11653137 279.08119202 C106.45733704 278.58973694 105.7981427 278.09828186 105.11897278 277.5919342 C102.09231631 275.31873645 99.1280076 272.96853341 96.15950012 270.62025452 C94.99445213 269.70448702 93.82908635 268.78912368 92.66340637 267.87416077 C90.3156234 266.02961456 87.96942825 264.18307395 85.62434387 262.33509827 C79.7376537 257.69823271 73.83913225 253.07712981 67.90950012 248.49525452 C67.08566833 247.85608093 67.08566833 247.85608093 66.24519348 247.20399475 C63.33299298 244.95995903 63.33299298 244.95995903 60.15950012 243.12025452 C59.89016663 243.83705383 59.62083313 244.55385315 59.34333801 245.29237366 C58.15199671 248.13817821 56.77084489 250.70190564 55.21809387 253.36634827 C54.34906433 254.86017029 54.34906433 254.86017029 53.46247864 256.38417053 C52.84687073 257.43145325 52.23126282 258.47873596 51.59700012 259.55775452 C50.96656799 260.63146301 50.33613586 261.70517151 49.68659973 262.81141663 C31.64059307 293.41096646 31.64059307 293.41096646 16.15950012 298.12025452 C11.19531268 298.78489277 6.2768072 298.796949 1.27815247 298.75135803 C-0.17536285 298.75650933 -1.62887188 298.76379967 -3.08236694 298.77304077 C-6.99359988 298.79140615 -10.90414286 298.778713 -14.81534624 298.75895047 C-18.92793475 298.74244475 -23.04048362 298.75139303 -27.15309143 298.75646973 C-34.05421343 298.76097645 -40.95506313 298.74520699 -47.85612488 298.71717834 C-55.81339358 298.68510735 -63.77017215 298.68515664 -71.72747576 298.70239311 C-79.41300271 298.71830153 -87.09835146 298.71149863 -94.7838707 298.6944561 C-98.04122592 298.68761732 -101.29843692 298.6885851 -104.55578995 298.69600105 C-108.39578497 298.70370886 -112.23522749 298.69139302 -116.07512856 298.66415215 C-117.47707162 298.65731496 -118.87906676 298.65711975 -120.28100777 298.66436768 C-132.86309583 298.72188133 -141.43604654 296.39537043 -150.63737488 287.62806702 C-157.02553025 280.35644335 -159.192421 272.30223816 -159.05143738 262.79994202 C-158.33864256 253.74480785 -154.5607384 245.59617428 -147.95378113 239.33119202 C-140.86086581 233.67358176 -132.78834464 230.99042575 -123.7215271 231 C-122.71336945 230.99862534 -121.70521179 230.99725067 -120.66650391 230.99583435 C-119.5717424 230.99942963 -118.4769809 231.0030249 -117.3490448 231.00672913 C-115.60693726 231.00651009 -115.60693726 231.00651009 -113.82963562 231.00628662 C-109.99339425 231.00698291 -106.15720151 231.01476209 -102.32096863 231.02259827 C-99.66010455 231.02446345 -96.99924316 231.02593608 -94.33837891 231.02688599 C-88.05220285 231.02999113 -81.76604424 231.0381935 -75.47987586 231.04823548 C-68.32149467 231.05942199 -61.16311263 231.06491346 -54.00472486 231.06993091 C-39.28330762 231.0803768 -24.56190405 231.09796042 -9.84049988 231.12025452 C-9.38541046 229.95953178 -9.38541046 229.95953178 -8.92112732 228.77536011 C-7.81231079 226.05099383 -6.51306447 223.57187161 -5.07487488 221.00697327 C-4.5220282 220.01914856 -3.96918152 219.03132385 -3.39958191 218.01356506 C-2.80258484 216.95564758 -2.20558777 215.8977301 -1.59049988 214.80775452 C-0.9664325 213.69763 -0.34236511 212.58750549 0.3006134 211.44374084 C5.04480872 203.03151905 9.88629188 194.67830554 14.77033997 186.34657288 C19.24068336 178.71556184 23.652211 171.05206682 28.03450012 163.37025452 C28.36786377 162.78593658 28.70122742 162.20161865 29.04469299 161.59959412 C30.73953502 158.62833471 32.43357996 155.6566218 34.12727356 152.68470764 C37.13430875 147.40914405 40.14827949 142.13754392 43.16178894 136.86567688 C44.82657949 133.95324821 46.49112977 131.04068226 48.15559387 128.12806702 C48.48539749 127.55095978 48.81520111 126.97385254 49.15499878 126.3792572 C51.16603328 122.85989314 53.17591155 119.33987146 55.18492126 115.8193512 C64.46384323 99.55943354 73.79368493 83.33031928 83.15950012 67.12025452 C63.35950012 67.12025452 43.55950012 67.12025452 23.15950012 67.12025452 C19.85950012 73.39025452 16.55950012 79.66025452 13.15950012 86.12025452 C11.03404661 89.94800527 8.90123949 93.76170606 6.72200012 97.55775452 C3.45830359 103.26461644 0.21513326 108.97341298 -2.86784363 114.78041077 C-3.58919495 116.13018005 -3.58919495 116.13018005 -4.32511902 117.50721741 C-5.21894419 119.18704372 -6.10309246 120.87207443 -6.97502136 122.56336975 C-10.78969574 129.70237909 -15.53923017 135.5425626 -23.02799988 138.99525452 C-23.84655457 139.38455139 -24.66510925 139.77384827 -25.50846863 140.17494202 C-33.96581345 143.60321245 -43.74133662 143.33310522 -52.21549988 140.12025452 C-61.66211931 135.62965114 -67.03051467 128.73515282 -70.84049988 119.12025452 C-71.9134126 115.75020815 -72.0722184 112.52412964 -72.15299988 108.99525452 C-72.2090741 107.41357483 -72.2090741 107.41357483 -72.26628113 105.79994202 C-71.14235538 96.08674888 -65.49877301 87.38821321 -60.90299988 78.93275452 C-60.23296036 77.69083714 -59.56312319 76.44881056 -58.89347839 75.2066803 C-54.27075441 66.65436094 -49.52998611 58.17191445 -44.69743347 49.73622131 C-41.77281171 44.61252449 -38.94116693 39.45403903 -36.19987488 34.22962952 C-35.58700623 33.06641174 -34.97413757 31.90319397 -34.34269714 30.70472717 C-33.17073856 28.47054808 -32.00900468 26.23096184 -30.85978699 23.98500061 C-26.522312 15.73037123 -21.44082927 6.9867451 -12.52799988 3.12025452 C-11.70686707 2.74900452 -10.88573425 2.37775452 -10.03971863 1.99525452 C-6.50003032 0.58692382 -3.78820926 -0.00402573 0 0 Z " fill="#27FF57" transform="translate(170.8404998779297,88.87974548339844)"/>
<path d="M0 0 C13.0741832 8.48341013 22.38061451 20.6427463 26 36 C28.86542189 53.38539626 24.72710316 68.69165966 15.3203125 83.3125 C7.06378261 93.8652246 -6.1161824 101.24743002 -19.3125 103.1875 C-30.50625019 103.98197611 -40.86004527 103.65711536 -51.3125 99.1875 C-52.25351562 98.78660156 -53.19453125 98.38570313 -54.1640625 97.97265625 C-67.26639578 91.60602952 -76.68282527 80.1475003 -81.625 66.5859375 C-86.52700843 50.14378422 -84.95176275 35.29254217 -77.12915039 20.12817383 C-70.36619543 7.66826838 -59.08169907 -0.79423384 -45.65234375 -5.15625 C-44.88019531 -5.3728125 -44.10804688 -5.589375 -43.3125 -5.8125 C-42.39017578 -6.07293091 -42.39017578 -6.07293091 -41.44921875 -6.33862305 C-27.55335288 -9.42041871 -12.24066213 -6.89692897 0 0 Z " fill="#27FF57" transform="translate(389.3125,6.8125)"/>
</svg>
