<?xml version="1.0" encoding="UTF-8"?>
<svg version="1.1" xmlns="http://www.w3.org/2000/svg" width="512" height="512">
<path d="M0 0 C0.67844971 -0.00145523 1.35689941 -0.00291046 2.0559082 -0.00440979 C4.23915305 -0.00663931 6.4222397 -0.00041797 8.60546875 0.0078125 C9.71986832 0.01063736 9.71986832 0.01063736 10.85678101 0.01351929 C36.50379745 0.09015 58.69840582 0.93015799 78.23339844 19.56152344 C91.63956837 33.06842852 100.37571317 50.22925128 107.6875 67.58349609 C112.19968006 77.96324568 119.10721218 85.81732247 127.10546875 93.6953125 C127.75281982 94.33807129 128.4001709 94.98083008 129.06713867 95.64306641 C133.58619874 100.07780941 138.2522279 104.14980592 143.22265625 108.07421875 C147.5828089 111.56631669 151.70795554 115.32450251 155.79296875 119.1328125 C156.86998047 120.13441406 156.86998047 120.13441406 157.96875 121.15625 C161.53934395 125.0250306 162.62606158 129.54719437 163.16796875 134.6953125 C162.50036273 140.81503436 160.07386356 145.72960641 155.79296875 150.1328125 C150.54490876 153.84485493 144.99212057 154.13486718 138.79296875 153.1328125 C130.5610456 149.93872244 123.79172879 143.16151092 117.23388672 137.39892578 C116.03226865 136.34308177 114.82188265 135.29722679 113.609375 134.25390625 C111.65287247 132.56586352 109.72052176 130.85384197 107.79296875 129.1328125 C106.8803125 128.32457031 105.96765625 127.51632812 105.02734375 126.68359375 C85.66045904 109.37172622 74.68197081 90.67435247 63.79296875 67.1328125 C59.03004186 89.79893974 56.98320787 112.89025107 55.90209961 135.99859619 C55.78692749 138.25095832 55.64636101 140.50079655 55.50195312 142.75146484 C53.24117992 162.89773114 53.24117992 162.89773114 59.88842773 180.89379883 C62.15785724 183.02705611 64.53435686 184.92084102 67.05322266 186.75048828 C69.97665177 189.07331394 72.07701511 191.96512308 74.29296875 194.9453125 C75.18410621 196.10867819 76.07604548 197.2714301 76.96875 198.43359375 C77.4220166 199.02994629 77.8752832 199.62629883 78.34228516 200.24072266 C79.90354241 202.27703092 81.49267507 204.28943196 83.0859375 206.30078125 C92.77130327 218.59503262 99.98798455 230.79876685 105.8671875 245.30859375 C106.58585747 247.07851936 106.58585747 247.07851936 107.31904602 248.88420105 C112.65706365 262.13255715 117.58469044 275.52815553 122.48046875 288.9453125 C123.37391384 291.38232102 124.2677935 293.81917027 125.16210938 296.25585938 C126.89562428 300.98085778 128.62235084 305.70825306 130.34423828 310.4375 C131.93808298 314.81049553 133.55387639 319.17424895 135.19091797 323.53125 C135.56328079 324.53073166 135.93564362 325.53021332 136.31929016 326.5599823 C137.00841368 328.40839904 137.70401244 330.25442142 138.40763855 332.09736633 C141.45404283 340.31336239 142.78422316 348.12880192 139.29296875 356.5078125 C136.13450737 361.79431524 131.46056999 365.73838458 126.04296875 368.5703125 C117.67673849 370.01831389 110.81898191 369.80547881 103.14453125 366.0078125 C95.72215883 360.0896418 92.75297788 351.86531045 89.54296875 343.1953125 C89.04141009 341.86921332 88.53893485 340.54346052 88.03564453 339.21801758 C86.2641729 334.5317474 84.52641049 329.83326149 82.79296875 325.1328125 C82.44673462 324.19425415 82.10050049 323.2556958 81.74377441 322.28869629 C79.44089058 316.04196071 77.14441445 309.792885 74.85067749 303.54278564 C73.67040293 300.32694481 72.48921572 297.11144038 71.30786133 293.89599609 C70.54113948 291.80828252 69.77445589 289.72055489 69.0078125 287.6328125 C68.63753433 286.62489655 68.26725616 285.61698059 67.88575745 284.57852173 C66.04926169 279.57485368 64.22568266 274.56704931 62.42454529 269.55055237 C58.19684429 257.80326205 54.42833158 247.38396405 45.79296875 238.1328125 C44.87084303 237.10555844 43.95034282 236.07684351 43.03125 235.046875 C41.15726656 232.96424384 39.26029362 230.90701396 37.33984375 228.8671875 C35.29174318 226.66830652 33.34222615 224.43811097 31.41796875 222.1328125 C18.31619238 207.1106812 1.82255415 194.95471376 -14.74633789 184.09570312 C-37.30570775 169.26054469 -37.30570775 169.26054469 -41.20703125 156.1328125 C-43.00626967 143.30510964 -42.42706266 129.992004 -42.44726562 117.07641602 C-42.45691125 113.36646579 -42.48799396 109.6570852 -42.51953125 105.94726562 C-42.58866712 89.80926605 -41.46186079 74.11246548 -39.20703125 58.1328125 C-39.84938721 58.88062988 -40.49174316 59.62844727 -41.15356445 60.39892578 C-42.68570964 62.18261719 -44.21785482 63.96630859 -45.75 65.75 C-51.81357051 73.59297798 -54.93906495 83.29161364 -58.26953125 92.5078125 C-58.74031458 93.79622439 -59.21109911 95.08463584 -59.68188477 96.37304688 C-62.3925919 103.8395268 -64.96720735 111.34512825 -67.44921875 118.890625 C-67.71707687 119.70357025 -67.984935 120.5165155 -68.26091003 121.35409546 C-69.57140601 125.33989249 -70.86856014 129.32940297 -72.14672852 133.32568359 C-72.62368999 134.79269874 -73.10081427 136.25966096 -73.578125 137.7265625 C-73.78504974 138.38786163 -73.99197449 139.04916077 -74.20516968 139.73049927 C-76.68325598 147.28561072 -80.49531795 152.58594044 -87.51953125 156.3828125 C-93.86186175 158.1527652 -98.71238537 157.55505667 -104.3828125 154.40234375 C-108.72330048 151.38166154 -111.85802724 147.28355508 -113.20703125 142.1328125 C-113.48824244 136.45978029 -112.84946576 131.91125154 -110.96875 126.53125 C-110.73229263 125.82463226 -110.49583527 125.11801453 -110.25221252 124.38998413 C-109.47886458 122.09145135 -108.68760223 119.7996078 -107.89453125 117.5078125 C-107.34747357 115.9028424 -106.80093053 114.2976968 -106.25488281 112.69238281 C-104.59439901 107.83139895 -102.90394637 102.9811775 -101.20703125 98.1328125 C-100.95189758 97.40090698 -100.69676392 96.66900146 -100.43389893 95.91491699 C-91.2348089 69.54083006 -81.84447584 46.76355248 -61.20703125 27.1328125 C-60.18416016 26.13507813 -60.18416016 26.13507813 -59.140625 25.1171875 C-43.35363144 10.21710369 -21.94744567 0.0199173 0 0 Z " fill="#3463FF" transform="translate(231.20703125,128.8671875)"/>
<path d="M0 0 C3.21188873 0.61451041 5.2791485 1.69656828 7.90625 3.625 C8.64415771 4.16213623 9.38206543 4.69927246 10.14233398 5.25268555 C10.92036377 5.82929932 11.69839355 6.40591309 12.5 7 C13.70668335 7.88522339 13.70668335 7.88522339 14.93774414 8.78833008 C16.55321069 9.97533205 18.16660991 11.16515321 19.77783203 12.35791016 C21.66607924 13.75324642 23.56230993 15.13598782 25.46484375 16.51171875 C32.41022212 21.59526113 38.74456302 27.10166474 45 33 C41.01790498 52.32785986 35.29417327 68.97494975 26.26953125 86.50390625 C22.86561763 93.17634415 19.66458054 99.94401236 16.44203186 106.70542908 C11.59589941 116.86617487 6.6742188 126.98920293 1.72802734 137.1015625 C0.23406459 140.15759732 -1.25602007 143.2155049 -2.74609375 146.2734375 C-19.31701318 180.21488202 -19.31701318 180.21488202 -29.8125 183.9375 C-36.23154324 185.53983303 -41.75484369 185.70674647 -47.7109375 182.57421875 C-55.05459439 177.71792952 -59.18511548 172.77194186 -61 164 C-62.07834759 153.21652409 -56.52546288 143.60368627 -51.74609375 134.234375 C-51.24513687 133.23907776 -50.74417999 132.24378052 -50.2280426 131.21832275 C-48.63693502 128.05927913 -47.03774822 124.9044217 -45.4375 121.75 C-43.3495743 117.62144683 -41.26537012 113.4910321 -39.18359375 109.359375 C-38.40984657 107.82497017 -38.40984657 107.82497017 -37.62046814 106.25956726 C-33.57806017 98.2157735 -29.67191615 90.11201176 -25.81112671 81.97975159 C-23.2708206 76.63430935 -20.683703 71.31979854 -18.00390625 66.04296875 C-11.53803056 53.23594352 -5.9784972 41.31022632 -4 27 C-3.6352647 24.63503717 -3.2678495 22.27048683 -2.8984375 19.90625 C-1.87813113 13.27812662 -0.92001314 6.6427315 0 0 Z " fill="#3463FF" transform="translate(200,315)"/>
<path d="M0 0 C9.92393443 8.29788436 15.71504568 18.61581758 18.5 31.18359375 C19.91092328 47.92006305 17.48729861 62.32021888 6.53515625 75.55859375 C-3.41465917 86.21011405 -15.53252506 92.02824137 -30.02661133 92.58398438 C-45.89121252 92.83467773 -58.46761031 87.82873843 -70.25 77.12109375 C-79.60260825 67.33191851 -84.34772959 53.58339007 -84.5 40.18359375 C-83.39567093 24.61781253 -78.21646817 12.21646156 -66.75 1.37109375 C-47.23481558 -14.46126404 -20.16219065 -14.64909164 0 0 Z " fill="#3463FF" transform="translate(281.5,22.81640625)"/>
</svg>
